<?xml version="1.0" standalone="no"?>
<!DOCTYPE svg PUBLIC "-//W3C//DTD SVG 20010904//EN"
 "http://www.w3.org/TR/2001/REC-SVG-20010904/DTD/svg10.dtd">
<svg version="1.0" xmlns="http://www.w3.org/2000/svg"
 width="378.000000pt" height="378.000000pt" viewBox="0 0 378.000000 378.000000"
 preserveAspectRatio="xMidYMid meet">
<metadata>
Created by potrace 1.14, written by Peter Selinger 2001-2017
</metadata>
<g transform="translate(0.000000,378.000000) scale(0.100000,-0.100000)"
fill="#000000" stroke="none">
<path d="M610 3721 c-156 -63 -230 -250 -159 -401 52 -112 151 -175 274 -175
44 0 86 7 113 18 35 14 51 15 80 7 51 -14 102 -13 102 3 0 6 -7 35 -15 62 -14
46 -14 54 2 95 10 28 17 72 17 115 0 127 -72 230 -191 275 -68 25 -162 25
-223 1z m192 -31 c57 -16 119 -69 150 -129 35 -67 38 -162 8 -228 -15 -34 -17
-49 -9 -78 6 -21 8 -39 5 -42 -3 -3 -22 -1 -43 4 -30 7 -47 5 -82 -10 -57 -25
-151 -26 -209 -2 -58 24 -125 100 -146 169 -21 67 -15 123 22 191 60 108 182
158 304 125z"/>
<path d="M546 3487 c-26 -19 -18 -61 12 -65 44 -7 67 32 36 62 -19 19 -25 20
-48 3z"/>
<path d="M700 3486 c-20 -25 -8 -61 22 -64 36 -4 53 26 32 56 -18 25 -37 28
-54 8z"/>
<path d="M856 3481 c-25 -28 -5 -63 32 -59 34 4 44 45 16 65 -23 17 -28 17
-48 -6z"/>
<path d="M2222 3610 c-18 -4 -56 -22 -83 -39 -28 -17 -64 -31 -82 -31 -60 -1
-208 -39 -274 -72 -86 -42 -143 -100 -237 -242 l-77 -116 -37 16 c-141 62
-152 66 -187 54 -44 -15 -60 -37 -138 -203 -44 -92 -71 -137 -82 -137 -29 0
-91 -38 -129 -80 -54 -60 -164 -230 -223 -345 -92 -180 -133 -366 -101 -460
12 -36 17 -40 50 -43 40 -3 42 -6 53 -81 l7 -44 -27 7 c-95 24 -137 14 -154
-36 -12 -33 -15 -16 92 -473 36 -155 45 -184 69 -207 20 -19 28 -36 28 -61 0
-58 31 -83 135 -112 89 -25 225 -63 256 -71 13 -4 17 -25 22 -107 7 -107 25
-177 55 -210 9 -11 38 -30 63 -43 43 -21 47 -27 54 -70 10 -68 44 -175 66
-205 83 -117 619 -167 897 -84 65 20 97 59 137 172 22 62 37 86 71 116 38 34
50 56 115 220 39 100 88 216 108 257 77 154 116 283 126 420 4 47 13 112 21
145 18 79 18 131 -2 189 -9 26 -13 51 -8 55 5 4 34 15 64 24 107 33 192 120
206 214 6 41 9 44 66 70 126 56 197 186 185 338 -7 94 -37 164 -94 216 l-46
42 13 88 c21 144 0 267 -70 419 -21 47 -46 110 -54 140 -9 30 -27 68 -42 83
-57 61 -224 150 -429 227 -162 61 -292 82 -383 60z m323 -80 c176 -61 376
-162 436 -219 56 -55 65 -80 19 -56 -69 36 -121 13 -230 -100 -74 -76 -113
-95 -224 -106 -102 -10 -183 -5 -301 18 -146 28 -239 86 -270 167 -22 57 -10
83 93 207 75 89 96 105 172 133 8 3 53 4 100 2 67 -3 110 -13 205 -46z m-495
-36 c0 -3 -24 -34 -54 -69 -30 -36 -57 -74 -61 -86 -5 -16 -12 -19 -28 -14
-12 4 -68 9 -125 12 l-103 5 22 24 c50 53 148 97 264 119 87 16 85 16 85 9z
m946 -293 c111 -67 191 -317 163 -507 l-12 -81 -41 8 c-45 8 -111 -3 -157 -27
l-29 -15 6 83 c12 165 -45 305 -156 381 l-25 18 81 79 c90 88 112 96 170 61z
m-1754 -93 c-11 -18 -68 -129 -127 -246 -59 -117 -109 -211 -111 -209 -5 4
212 455 228 474 22 26 29 12 10 -19z m145 -10 c56 -23 58 -25 44 -46 -7 -11
-17 -11 -58 4 -46 16 -53 16 -74 2 -16 -10 -64 -97 -139 -252 -92 -191 -116
-233 -122 -216 -6 16 19 75 108 253 64 128 125 242 137 255 26 27 38 28 104 0z
m-16 -91 l27 -12 -37 -75 c-162 -332 -191 -414 -191 -532 0 -80 -19 -139 -45
-137 -22 1 -130 77 -130 91 0 8 72 164 160 346 108 226 164 332 175 332 8 -1
27 -6 41 -13z m379 -139 c45 -31 71 -83 68 -133 -2 -33 -7 -41 -25 -43 -17 -3
-24 3 -28 25 -12 53 -27 82 -51 98 -32 21 -62 19 -114 -9 -66 -34 -96 -14 -47
32 60 56 140 68 197 30z m-781 -146 c-16 -34 -39 -64 -50 -67 -27 -9 -24 -25
5 -25 56 0 88 -104 50 -159 -15 -21 -21 -23 -75 -17 -48 6 -60 4 -65 -8 -3 -9
-11 -13 -17 -9 -5 3 -7 2 -4 -4 3 -5 0 -27 -8 -49 -25 -71 -1 -117 86 -164 67
-35 84 -64 74 -119 -6 -31 -41 -74 -87 -106 -18 -13 -25 -14 -148 -30 -77 -9
-107 -9 -113 -1 -4 6 -6 56 -4 111 3 87 9 112 41 195 64 159 201 385 289 474
26 26 50 46 53 44 2 -3 -10 -32 -27 -66z m1516 -152 c43 -41 66 -123 42 -147
-22 -22 -57 -8 -57 24 0 52 -49 103 -99 103 -10 0 -34 -11 -53 -24 -25 -17
-40 -21 -52 -14 -32 18 -14 49 49 83 20 11 47 15 83 12 43 -3 59 -10 87 -37z
m-1182 -148 c24 -45 111 -129 181 -176 249 -165 695 -307 971 -310 193 -2 278
36 325 145 l22 51 34 -50 c39 -58 104 -101 164 -109 40 -6 40 -6 34 -42 -20
-112 -128 -187 -287 -198 -254 -18 -901 137 -1222 292 -184 90 -270 173 -301
295 -16 65 -14 104 13 200 l16 55 17 -60 c9 -33 24 -75 33 -93z m1817 141 l33
-6 -51 -13 c-54 -14 -71 -27 -113 -84 -56 -76 -77 -245 -39 -327 18 -41 18
-43 1 -43 -49 0 -79 21 -102 73 -44 103 -23 236 53 322 66 75 127 97 218 78z
m95 -87 c23 -15 24 -20 21 -96 -6 -124 -61 -216 -157 -265 l-45 -23 -14 21
c-30 46 -40 82 -40 147 0 138 80 248 173 236 21 -2 49 -11 62 -20z m-2346
-115 c-6 -18 -14 -30 -17 -27 -2 3 1 19 8 36 16 40 23 33 9 -9z m79 4 c-17
-38 2 -68 66 -105 31 -17 56 -32 56 -33 0 -1 -15 -2 -34 -1 -54 3 -146 49
-146 73 0 34 32 91 52 91 15 0 16 -3 6 -25z m208 -280 c38 -20 89 -19 124 1
26 16 29 16 59 -7 17 -12 31 -25 31 -29 0 -3 -22 -13 -50 -23 -27 -10 -50 -22
-50 -27 0 -5 -34 3 -75 18 -69 25 -75 29 -75 54 0 33 -1 32 36 13z m258 -106
c-31 -12 -53 -15 -63 -9 -13 7 -11 11 14 20 17 7 39 15 50 20 11 4 26 3 33 -3
10 -8 2 -15 -34 -28z m-29 -83 c181 -119 601 -260 956 -320 l35 -6 -48 -50
c-54 -56 -105 -152 -137 -257 -12 -42 -27 -73 -34 -73 -17 0 -111 28 -159 47
l-38 15 0 92 0 92 -242 74 c-134 40 -253 80 -266 88 -13 9 -65 25 -115 37
l-92 23 2 33 c2 19 15 85 29 147 18 79 29 110 37 105 7 -5 39 -26 72 -47z
m-291 -1 c71 -19 131 -36 133 -39 3 -2 -2 -35 -11 -73 -8 -37 -17 -77 -19 -88
-2 -11 -7 -19 -13 -19 -42 5 -374 89 -374 95 0 9 140 159 148 159 4 0 65 -16
136 -35z m-294 -11 c0 -35 -33 -104 -49 -104 -11 0 -30 45 -37 90 l-6 39 38 4
c22 2 42 4 47 5 4 1 7 -14 7 -34z m199 -214 c489 -118 464 -106 475 -236 4
-44 18 -167 31 -274 38 -304 37 -292 25 -285 -6 3 -7 12 -4 18 4 7 4 9 0 5 -5
-4 -26 6 -48 22 -49 36 -98 46 -147 32 -28 -9 -48 -8 -86 2 -28 8 -158 44
-290 81 -132 36 -250 73 -262 80 -17 11 -27 40 -48 132 -15 65 -45 192 -66
283 -21 91 -41 175 -44 187 -5 22 17 53 37 53 6 0 198 -45 427 -100z m1622
-135 c91 -32 128 -97 129 -220 0 -131 -59 -320 -150 -474 -22 -39 -45 -71 -51
-71 -16 0 -71 31 -67 38 2 4 33 68 70 142 102 207 121 313 62 359 -41 32 -85
36 -132 12 -56 -29 -83 -72 -149 -241 -30 -80 -59 -149 -63 -153 -7 -8 -67 18
-103 45 -17 13 -16 18 16 113 19 55 46 138 61 184 42 131 107 227 181 265 39
20 139 21 196 1z m165 -7 c-3 -13 -6 -32 -6 -43 0 -16 -5 -13 -29 15 -34 40
-32 50 11 50 27 0 30 -3 24 -22z m-1061 -61 l200 -62 5 -94 5 -94 99 -34 c55
-18 104 -37 108 -41 4 -4 -2 -37 -14 -73 l-23 -64 -5 49 -5 50 -270 75 c-148
41 -273 79 -276 84 -4 5 -12 60 -18 121 -7 61 -15 119 -17 129 -3 9 -2 17 3
17 4 0 98 -29 208 -63z m52 -322 c109 -31 205 -58 213 -61 14 -6 -361 -202
-387 -203 -7 -1 -13 7 -13 17 0 11 22 27 70 49 72 32 88 56 48 69 -20 6 -17 9
26 31 26 13 46 29 43 36 -2 7 -52 27 -110 46 -84 27 -107 39 -107 53 0 10 4
18 10 18 5 0 99 -25 207 -55z m-127 -46 l63 -22 -36 -18 c-32 -17 -38 -17 -71
-4 -28 12 -36 21 -36 40 0 30 0 30 80 4z m-705 -117 c305 -85 295 -82 282
-110 -12 -26 -11 -26 -132 7 -38 11 -131 36 -205 56 -74 20 -141 41 -147 47
-7 6 -13 22 -13 35 0 19 4 24 18 20 9 -2 98 -27 197 -55z m715 7 c0 -9 -67
-38 -74 -32 -3 4 -6 21 -6 39 l0 33 40 -17 c22 -9 40 -20 40 -23z m385 23 c0
-15 -56 -53 -67 -46 -4 3 -8 1 -8 -5 0 -14 -121 -87 -138 -83 -8 2 -11 -1 -8
-6 3 -6 -1 -13 -10 -16 -12 -5 -15 -2 -10 11 4 10 4 14 0 11 -4 -4 -16 -2 -27
4 -19 10 -15 14 46 45 38 18 73 31 80 27 7 -4 8 -3 4 2 -8 9 111 75 128 70 6
-1 10 -8 10 -14z m-628 -123 c35 -13 84 -60 130 -124 42 -58 62 -77 75 -69 5
3 21 31 37 63 50 98 70 102 123 25 26 -36 34 -42 36 -27 3 19 39 38 217 117
l60 27 17 -21 c9 -11 27 -47 38 -78 37 -97 12 -172 -66 -202 -29 -11 -83 -15
-219 -15 -199 1 -325 21 -427 68 -97 44 -182 152 -158 198 22 41 84 58 137 38z
m902 -56 c22 -13 31 -25 31 -45 0 -30 -40 -83 -69 -91 -21 -5 -24 3 -36 84 -6
39 -4 49 12 58 24 14 27 14 62 -6z m-699 -23 c-6 -11 -16 -17 -22 -14 -7 5 -5
12 7 21 25 18 28 17 15 -7z m-412 -22 c6 -6 12 -18 12 -27 0 -31 56 -107 107
-144 57 -42 172 -90 264 -111 168 -39 466 -57 614 -38 l50 7 3 51 c3 51 3 52
50 69 59 23 84 38 149 92 44 37 56 42 72 33 21 -10 21 -10 0 -63 -54 -136 -86
-201 -109 -218 -38 -28 -187 -43 -430 -43 -240 0 -353 12 -549 55 -157 35
-252 75 -270 116 -16 34 -36 205 -27 228 6 17 37 13 64 -7z m392 -418 c74 -11
201 -23 283 -27 161 -7 159 -6 133 -68 l-15 -35 -79 0 c-162 0 -373 29 -515
72 -71 21 -87 38 -87 92 l0 23 73 -19 c39 -10 133 -27 207 -38z m-110 -125
c143 -32 236 -44 363 -46 59 -1 107 -5 107 -9 0 -4 -27 -21 -59 -39 -49 -26
-70 -31 -127 -31 -140 0 -348 52 -390 97 -29 32 -39 67 -16 58 9 -4 64 -17
122 -30z"/>
<path d="M890 1541 c-12 -24 -13 -81 -1 -100 8 -12 145 -51 182 -51 13 0 14 8
9 49 -9 74 -28 96 -96 109 -76 16 -82 15 -94 -7z"/>
</g>
</svg>
